<svg width="512" height="514" viewBox="0 0 512 514" fill="none" xmlns="http://www.w3.org/2000/svg">
<path d="M227 0.506149C216.9 1.50615 199.8 4.80615 189 7.60615C178.2 10.5061 169.8 13.4061 160.3 17.4061C158.6 18.2061 156.9 18.8061 156.5 18.8061C154.6 18.8061 132.3 30.3061 122.7 36.2061C96.5 52.3061 74.6 71.5061 53.5 96.9062C50.7 100.206 43 110.706 43 111.106C43 111.306 40.6 115.206 37.6 119.706C28.3 134.006 16.8 158.406 10.7 176.806C8.5 183.606 7.3 187.806 4.1 200.306C1.6 210.106 0 223.206 0 233.506V244.806H67.9C131.8 244.806 135.9 244.706 136.3 243.006C136.6 242.106 137.4 238.106 138 234.306C138.7 230.406 139.8 225.706 140.5 223.806C141.3 221.906 142.2 219.206 142.6 217.806C143 216.406 144.8 212.006 146.6 208.006C148.5 203.906 150 200.406 150 200.206C150 199.906 150.4 199.206 151 198.506C151.5 197.806 154.3 193.706 157.2 189.306C162.2 181.606 176.5 166.206 182.4 162.206C183.9 161.206 185.7 159.806 186.4 159.306C188.5 157.306 197.3 152.006 203.5 149.006C218.8 141.506 241.6 135.806 256 135.806C263.5 135.806 281.4 139.106 291.9 142.406C300.2 145.006 317.8 153.506 321.1 156.406C321.9 157.206 323 157.806 323.4 157.806C323.8 157.806 324.7 158.406 325.5 159.006C326.2 159.706 328.3 161.406 330.2 162.706C334.9 166.106 350.8 182.706 351.5 184.906C351.9 186.006 352.5 186.806 352.9 186.806C353.4 186.806 354.3 188.106 355 189.806C355.7 191.406 356.6 192.806 356.9 192.806C357.3 192.806 359.7 197.006 362.2 202.006C367.4 212.506 372.3 226.906 374.2 237.306L375.5 244.306L440.5 244.606C476.3 244.706 507 244.606 508.9 244.306L512.3 243.706L511.7 231.506C511.4 224.806 510.4 215.706 509.4 211.306C508.5 206.906 507.4 201.506 507 199.306C504.7 188.106 498.6 168.306 494.5 159.306C493.8 157.606 492.4 154.506 491.4 152.306C490.5 150.106 488.5 145.806 487 142.806C485.5 139.806 483.4 135.706 482.5 133.806C480.6 130.006 467.9 109.606 467 108.806C466.6 108.506 463.7 104.706 460.5 100.306C457.3 95.9062 453.3 90.7062 451.6 88.8062C446 82.4061 427.6 64.3061 423.1 60.8061C420.8 58.9061 418.1 56.6061 417.1 55.7061C416.2 54.9061 413.7 52.9061 411.5 51.3061C409.3 49.7061 405.3 46.8061 402.5 44.7061C399.8 42.7061 395.9 40.2061 394 39.1061C392.1 38.1061 388.6 36.0061 386.4 34.6061C379.4 30.1061 362.3 21.8061 351 17.3061C348.5 16.3061 345.2 15.0061 343.5 14.3061C336.5 11.3061 321.1 7.00615 309.5 4.70615C291.1 1.00615 277.9 -0.0938513 254.5 0.0061487C241.3 0.106149 228.9 0.306149 227 0.506149Z" fill="#C6613F"/>
<path d="M236 163.306C218.5 166.906 200.6 176.906 187.1 190.806C180.6 197.506 172.6 208.706 169.9 214.806C168.8 217.306 167.5 220.206 167 221.306C164.2 227.406 162 236.606 160.9 246.806C159.9 256.606 159.9 260.006 161.3 269.806C162.1 276.106 163.6 283.606 164.5 286.306C166.4 292.506 175.1 309.806 176.2 309.806C176.6 309.806 177 310.406 177 311.206C177 312.006 177.3 312.806 177.8 313.006C178.2 313.106 180.3 315.506 182.5 318.306C188.4 325.706 193.5 330.306 202.5 336.206C209.9 341.106 213.1 342.806 223.3 347.306C237.3 353.406 278 353.406 287.7 347.206C288.9 346.406 290.6 345.806 291.5 345.806C293.1 345.806 304.1 340.106 309.5 336.506C313.8 333.606 335 312.506 335 311.106C335 310.506 335.3 309.806 335.8 309.606C336.2 309.406 338.2 306.106 340.2 302.306C349.2 284.506 351.6 271.606 350 248.806C348.9 234.106 348.3 230.606 344.9 221.406C339.6 207.106 326.5 190.506 311.5 179.106C302.8 172.506 287.1 165.806 274.2 163.206C265.1 161.506 244.9 161.506 236 163.306Z" fill="#C6613F"/>
<path d="M0 281.006C0.1 294.606 5 322.806 9 332.306C9.5 333.406 10.8 337.006 11.9 340.306C15.5 351.106 17.1 355.306 18.1 356.306C18.6 356.806 19 357.806 19 358.606C19 361.306 36.8 395.406 39 396.806C39.4 397.106 40 398.206 40.4 399.406C40.7 400.506 41.8 402.306 42.8 403.406C43.7 404.406 46.8 408.406 49.5 412.306C52.2 416.106 62.7 427.606 73 437.806C90.8 455.606 96 460.306 103.9 465.806C105.9 467.206 109.1 469.506 111.1 471.006C113.1 472.606 115.2 473.806 115.8 473.806C116.5 473.806 117 474.206 117 474.806C117 475.306 117.7 475.806 118.5 475.806C119.3 475.806 120 476.206 120 476.806C120 477.306 120.5 477.806 121.1 477.806C121.7 477.806 123.4 478.706 125 479.806C128.6 482.306 153.5 494.806 155 494.806C155.7 494.806 157.4 495.506 158.8 496.206C163.7 498.906 179.8 504.106 192.5 507.206C195.8 508.006 200.5 509.206 203 509.806C215.6 512.806 228.2 513.806 255.5 513.806C287.3 513.806 297.2 512.706 319.5 507.106C329.2 504.606 345.5 499.406 345.8 498.606C346 498.106 347.2 497.806 348.5 497.806C349.8 497.806 351.1 497.406 351.4 496.906C351.7 496.406 353.2 495.706 354.7 495.306C357.5 494.606 378.4 484.506 385 480.606C399.7 471.906 409 465.406 421.5 454.706C431.5 446.106 448.5 429.006 454.6 421.306C456.7 418.606 459 415.806 459.5 415.106C462.7 411.206 468.2 403.706 469.7 401.306C470.4 400.206 473 395.906 475.6 391.806C480.7 383.706 489.8 366.406 492 360.806C493.4 357.106 495.1 352.906 497.4 347.506C498.7 344.406 502.6 331.706 505.5 321.306C509.5 306.506 512 290.306 512 279.206V269.806H444H376L375.1 272.006C374.6 273.306 373.9 276.806 373.5 279.806C373.1 282.806 372.2 286.806 371.4 288.706C370.6 290.506 370 292.706 370 293.506C370 295.206 368.3 299.306 363.6 308.606C358.6 318.806 357.8 320.106 355.8 322.206C354.8 323.306 354 324.806 354 325.506C354 326.206 353.6 326.806 353.1 326.806C352.6 326.806 351.9 327.606 351.5 328.706C350.6 331.606 332.3 349.906 324.7 355.406C300.9 373.006 266.4 381.206 237.5 376.306C219.6 373.206 196.5 363.406 184.7 353.806C174.2 345.306 168.4 339.406 160 329.106C151.4 318.406 141.4 296.506 138.4 281.306C137.7 277.406 136.8 273.306 136.5 272.006L136 269.806H68H0V281.006Z" fill="#ECECEC"/>
</svg>
