<svg width="512" height="514" viewBox="0 0 512 514" fill="none" xmlns="http://www.w3.org/2000/svg">
<g clip-path="url(#clip0_45_3)">
<path d="M227 0.699996C216.9 1.7 199.8 5 189 7.8C178.2 10.7 169.8 13.6 160.3 17.6C158.6 18.4 156.9 19 156.5 19C154.6 19 132.3 30.5 122.7 36.4C96.5 52.5 74.6 71.7 53.5 97.1C50.7 100.4 43 110.9 43 111.3C43 111.5 40.6 115.4 37.6 119.9C28.3 134.2 16.8 158.6 10.7 177C8.5 183.8 7.3 188 4.1 200.5C1.6 210.3 0 223.4 0 233.7V245H67.9C131.8 245 135.9 244.9 136.3 243.2C136.6 242.3 137.4 238.3 138 234.5C138.7 230.6 139.8 225.9 140.5 224C141.3 222.1 142.2 219.4 142.6 218C143 216.6 144.8 212.2 146.6 208.2C148.5 204.1 150 200.6 150 200.4C150 200.1 150.4 199.4 151 198.7C151.5 198 154.3 193.9 157.2 189.5C162.2 181.8 176.5 166.4 182.4 162.4C183.9 161.4 185.7 160 186.4 159.5C188.5 157.5 197.3 152.2 203.5 149.2C218.8 141.7 241.6 136 256 136C263.5 136 281.4 139.3 291.9 142.6C300.2 145.2 317.8 153.7 321.1 156.6C321.9 157.4 323 158 323.4 158C323.8 158 324.7 158.6 325.5 159.2C326.2 159.9 328.3 161.6 330.2 162.9C334.9 166.3 350.8 182.9 351.5 185.1C351.9 186.2 352.5 187 352.9 187C353.4 187 354.3 188.3 355 190C355.7 191.6 356.6 193 356.9 193C357.3 193 359.7 197.2 362.2 202.2C367.4 212.7 372.3 227.1 374.2 237.5L375.5 244.5L440.5 244.8C476.3 244.9 507 244.8 508.9 244.5L512.3 243.9L511.7 231.7C511.4 225 510.4 215.9 509.4 211.5C508.5 207.1 507.4 201.7 507 199.5C504.7 188.3 498.6 168.5 494.5 159.5C493.8 157.8 492.4 154.7 491.4 152.5C490.5 150.3 488.5 146 487 143C485.5 140 483.4 135.9 482.5 134C480.6 130.2 467.9 109.8 467 109C466.6 108.7 463.7 104.9 460.5 100.5C457.3 96.1 453.3 90.9 451.6 89C446 82.6 427.6 64.5 423.1 61C420.8 59.1 418.1 56.8 417.1 55.9C416.2 55.1 413.7 53.1 411.5 51.5C409.3 49.9 405.3 47 402.5 44.9C399.8 42.9 395.9 40.4 394 39.3C392.1 38.3 388.6 36.2 386.4 34.8C379.4 30.3 362.3 22 351 17.5C348.5 16.5 345.2 15.2 343.5 14.5C336.5 11.5 321.1 7.2 309.5 4.9C291.1 1.2 277.9 0.0999964 254.5 0.199996C241.3 0.299996 228.9 0.499996 227 0.699996Z" fill="#ECECEC"/>
<path d="M236 163.5C218.5 167.1 200.6 177.1 187.1 191C180.6 197.7 172.6 208.9 169.9 215C168.8 217.5 167.5 220.4 167 221.5C164.2 227.6 162 236.8 160.9 247C159.9 256.8 159.9 260.2 161.3 270C162.1 276.3 163.6 283.8 164.5 286.5C166.4 292.7 175.1 310 176.2 310C176.6 310 177 310.6 177 311.4C177 312.2 177.3 313 177.8 313.2C178.2 313.3 180.3 315.7 182.5 318.5C188.4 325.9 193.5 330.5 202.5 336.4C209.9 341.3 213.1 343 223.3 347.5C237.3 353.6 278 353.6 287.7 347.4C288.9 346.6 290.6 346 291.5 346C293.1 346 304.1 340.3 309.5 336.7C313.8 333.8 335 312.7 335 311.3C335 310.7 335.3 310 335.8 309.8C336.2 309.6 338.2 306.3 340.2 302.5C349.2 284.7 351.6 271.8 350 249C348.9 234.3 348.3 230.8 344.9 221.6C339.6 207.3 326.5 190.7 311.5 179.3C302.8 172.7 287.1 166 274.2 163.4C265.1 161.7 244.9 161.7 236 163.5Z" fill="#C6613F"/>
<path d="M0 281.2C0.1 294.8 5 323 9 332.5C9.5 333.6 10.8 337.2 11.9 340.5C15.5 351.3 17.1 355.5 18.1 356.5C18.6 357 19 358 19 358.8C19 361.5 36.8 395.6 39 397C39.4 397.3 40 398.4 40.4 399.6C40.7 400.7 41.8 402.5 42.8 403.6C43.7 404.6 46.8 408.6 49.5 412.5C52.2 416.3 62.7 427.8 73 438C90.8 455.8 96 460.5 103.9 466C105.9 467.4 109.1 469.7 111.1 471.2C113.1 472.8 115.2 474 115.8 474C116.5 474 117 474.4 117 475C117 475.5 117.7 476 118.5 476C119.3 476 120 476.4 120 477C120 477.5 120.5 478 121.1 478C121.7 478 123.4 478.9 125 480C128.6 482.5 153.5 495 155 495C155.7 495 157.4 495.7 158.8 496.4C163.7 499.1 179.8 504.3 192.5 507.4C195.8 508.2 200.5 509.4 203 510C215.6 513 228.2 514 255.5 514C287.3 514 297.2 512.9 319.5 507.3C329.2 504.8 345.5 499.6 345.8 498.8C346 498.3 347.2 498 348.5 498C349.8 498 351.1 497.6 351.4 497.1C351.7 496.6 353.2 495.9 354.7 495.5C357.5 494.8 378.4 484.7 385 480.8C399.7 472.1 409 465.6 421.5 454.9C431.5 446.3 448.5 429.2 454.6 421.5C456.7 418.8 459 416 459.5 415.3C462.7 411.4 468.2 403.9 469.7 401.5C470.4 400.4 473 396.1 475.6 392C480.7 383.9 489.8 366.6 492 361C493.4 357.3 495.1 353.1 497.4 347.7C498.7 344.6 502.6 331.9 505.5 321.5C509.5 306.7 512 290.5 512 279.4V270H444H376L375.1 272.2C374.6 273.5 373.9 277 373.5 280C373.1 283 372.2 287 371.4 288.9C370.6 290.7 370 292.9 370 293.7C370 295.4 368.3 299.5 363.6 308.8C358.6 319 357.8 320.3 355.8 322.4C354.8 323.5 354 325 354 325.7C354 326.4 353.6 327 353.1 327C352.6 327 351.9 327.8 351.5 328.9C350.6 331.8 332.3 350.1 324.7 355.6C300.9 373.2 266.4 381.4 237.5 376.5C219.6 373.4 196.5 363.6 184.7 354C174.2 345.5 168.4 339.6 160 329.3C151.4 318.6 141.4 296.7 138.4 281.5C137.7 277.6 136.8 273.5 136.5 272.2L136 270H68H0V281.2Z" fill="#ECECEC"/>
</g>
<defs>
<clipPath id="clip0_45_3">
<rect width="512" height="514" fill="white"/>
</clipPath>
</defs>
</svg>
